<mxfile host="65bd71144e">
    <diagram id="-lkKFpOoQMagXsnD77sS" name="第 1 页">
        <mxGraphModel dx="828" dy="388" grid="1" gridSize="10" guides="1" tooltips="1" connect="1" arrows="1" fold="1" page="1" pageScale="1" pageWidth="827" pageHeight="1169" math="0" shadow="0">
            <root>
                <mxCell id="0"/>
                <mxCell id="1" parent="0"/>
                <mxCell id="4" value="" style="edgeStyle=none;html=1;fontSize=24;" parent="1" source="2" target="3" edge="1">
                    <mxGeometry relative="1" as="geometry"/>
                </mxCell>
                <mxCell id="2" value="&lt;font style=&quot;font-size: 12px;&quot;&gt;你好&lt;/font&gt;" style="rounded=1;whiteSpace=wrap;html=1;shadow=1;fillColor=#FF0000;" parent="1" vertex="1">
                    <mxGeometry x="70" y="30" width="120" height="60" as="geometry"/>
                </mxCell>
                <mxCell id="3" value="&lt;font style=&quot;font-size: 24px;&quot;&gt;你是谁&lt;/font&gt;" style="shape=parallelogram;perimeter=parallelogramPerimeter;whiteSpace=wrap;html=1;fixedSize=1;fillColor=#FF0000;rounded=1;shadow=1;" parent="1" vertex="1">
                    <mxGeometry x="70" y="190" width="120" height="60" as="geometry"/>
                </mxCell>
                <mxCell id="5" value="" style="shape=partialRectangle;whiteSpace=wrap;html=1;left=0;right=0;fillColor=none;" vertex="1" parent="1">
                    <mxGeometry x="490" y="110" width="120" height="60" as="geometry"/>
                </mxCell>
                <mxCell id="6" value="Label" style="html=1;whiteSpace=wrap;container=1;recursiveResize=0;collapsible=0;" vertex="1" parent="1">
                    <mxGeometry x="460" y="270" width="160" height="70" as="geometry"/>
                </mxCell>
                <mxCell id="7" value="" style="triangle;html=1;whiteSpace=wrap;" vertex="1" parent="6">
                    <mxGeometry x="20" y="20" width="20" height="30" as="geometry"/>
                </mxCell>
                <mxCell id="10" value="" style="group" vertex="1" connectable="0" parent="1">
                    <mxGeometry x="290" y="70" width="30" height="570" as="geometry"/>
                </mxCell>
                <mxCell id="8" value="Actor" style="shape=umlActor;verticalLabelPosition=bottom;verticalAlign=top;html=1;outlineConnect=0;" vertex="1" parent="10">
                    <mxGeometry width="30" height="60" as="geometry"/>
                </mxCell>
                <mxCell id="9" value="" style="line;strokeWidth=2;direction=south;html=1;perimeter=backbonePerimeter;points=[];outlineConnect=0;dashed=1;dashPattern=1 2;fillOpacity=100;fillColor=#f5f5f5;fontColor=#333333;strokeColor=#666666;strokeOpacity=100;" vertex="1" parent="10">
                    <mxGeometry x="10" y="70" width="10" height="500" as="geometry"/>
                </mxCell>
            </root>
        </mxGraphModel>
    </diagram>
</mxfile>